<?xml version="1.0" encoding="utf-8"?>
<!-- Generator: Adobe Illustrator 27.5.0, SVG Export Plug-In . SVG Version: 6.00 Build 0)  -->
<svg version="1.1" xmlns="http://www.w3.org/2000/svg" xmlns:xlink="http://www.w3.org/1999/xlink" x="0px" y="0px"
	 viewBox="0 0 500 500" style="enable-background:new 0 0 500 500;" xml:space="preserve">
<g id="BACKGROUND">
	<g>
		<radialGradient id="SVGID_1_" cx="253.552" cy="184.6633" r="344.6514" gradientUnits="userSpaceOnUse">
			<stop  offset="0" style="stop-color:#FFFFFF"/>
			<stop  offset="1" style="stop-color:#EDF0F7"/>
		</radialGradient>
		<rect style="fill:url(#SVGID_1_);" width="500" height="499.998"/>
		<rect y="346.53" style="fill:#242C36;" width="500" height="153.468"/>
	</g>
</g>
<g id="OBJECTS">
	<g>
		<g>
			
				<linearGradient id="SVGID_00000128455913954160515320000016405257426819727805_" gradientUnits="userSpaceOnUse" x1="214.7944" y1="83.1044" x2="391.0031" y2="96.8946">
				<stop  offset="0" style="stop-color:#FF7DB2"/>
				<stop  offset="1" style="stop-color:#ED006B"/>
			</linearGradient>
			<path style="fill:url(#SVGID_00000128455913954160515320000016405257426819727805_);" d="M293.555,82.151
				c-1.637-1.815-4.021-2.723-7.148-2.723H264.39c-2.112,0-3.714-0.395-4.801-1.174c-1.084-0.781-1.702-2.031-1.85-3.741v-3.596
				c-0.054-0.604-0.38-0.909-0.987-0.909H250h-6.751c-0.61,0-0.936,0.306-0.99,0.909v3.596c-0.147,1.71-0.765,2.96-1.847,3.741
				c-1.087,0.779-2.689,1.174-4.804,1.174h-22.017c-3.124,0-5.51,0.907-7.146,2.723c-1.639,1.813-2.457,4.458-2.457,7.937v7.715
				c0,0.249,0.088,0.465,0.265,0.644c0.175,0.176,0.391,0.265,0.642,0.265h9c0.25,0,0.465-0.089,0.643-0.265
				c0.178-0.179,0.265-0.394,0.265-0.644v-1.816c0-1.158,0.413-2.118,1.246-2.873c0.833-0.756,1.903-1.136,3.218-1.136h20.889
				c2.521,0,4.563-0.374,6.125-1.133c1.564-0.757,2.723-1.939,3.48-3.556c0.079-0.159,0.16-0.229,0.24-0.218
				c0.081-0.011,0.16,0.059,0.24,0.218c0.759,1.616,1.917,2.799,3.479,3.556c1.563,0.759,3.605,1.133,6.128,1.133h20.888
				c1.314,0,2.386,0.38,3.217,1.136c0.832,0.755,1.248,1.715,1.248,2.873v1.816c0,0.249,0.087,0.465,0.264,0.644
				c0.178,0.176,0.391,0.265,0.643,0.265h8.998c0.252,0,0.469-0.089,0.643-0.265c0.179-0.179,0.267-0.394,0.267-0.644v-7.715
				C296.013,86.609,295.193,83.965,293.555,82.151z"/>
			
				<linearGradient id="SVGID_00000105404770689566524210000009355305340632859296_" gradientUnits="userSpaceOnUse" x1="205.433" y1="202.7189" x2="381.6415" y2="216.5091">
				<stop  offset="0" style="stop-color:#FF7DB2"/>
				<stop  offset="1" style="stop-color:#ED006B"/>
			</linearGradient>
			<path style="fill:url(#SVGID_00000105404770689566524210000009355305340632859296_);" d="M295.105,193.355h-9
				c-0.25,0-0.465,0.09-0.643,0.265c-0.177,0.18-0.264,0.395-0.264,0.645v1.815c0,1.158-0.414,2.119-1.246,2.873
				c-0.833,0.756-1.904,1.136-3.219,1.136h-20.888c-2.522,0-4.563,0.375-6.125,1.134c-1.564,0.756-2.723,1.938-3.482,3.555
				c-0.078,0.16-0.159,0.23-0.24,0.218c-0.08,0.012-0.159-0.058-0.24-0.218c-0.758-1.616-1.916-2.799-3.479-3.555
				c-1.563-0.759-3.605-1.134-6.127-1.134h-20.889c-1.314,0-2.385-0.38-3.216-1.136c-0.833-0.754-1.248-1.715-1.248-2.873v-1.815
				c0-0.249-0.087-0.465-0.265-0.645c-0.178-0.175-0.391-0.265-0.643-0.265h-8.998c-0.251,0-0.469,0.09-0.642,0.265
				c-0.179,0.18-0.267,0.395-0.267,0.645v7.714c0,3.479,0.818,6.123,2.457,7.936c1.637,1.816,4.022,2.723,7.148,2.723h22.018
				c2.111,0,3.714,0.396,4.801,1.174c1.084,0.781,1.701,2.031,1.85,3.742v3.595c0.053,0.604,0.379,0.909,0.987,0.909H250h6.752
				c0.61,0,0.935-0.305,0.99-0.909v-3.595c0.147-1.711,0.765-2.961,1.847-3.742c1.087-0.778,2.688-1.174,4.804-1.174h22.016
				c3.125,0,5.51-0.906,7.146-2.723c1.639-1.813,2.458-4.457,2.458-7.936v-7.714c0-0.249-0.088-0.465-0.265-0.645
				C295.572,193.445,295.357,193.355,295.105,193.355z"/>
			
				<linearGradient id="SVGID_00000121968401578941192160000002640962455108331419_" gradientUnits="userSpaceOnUse" x1="187.9902" y1="113.7791" x2="187.9902" y2="204.8873">
				<stop  offset="0" style="stop-color:#57E4FF"/>
				<stop  offset="1" style="stop-color:#0071ED"/>
			</linearGradient>
			<path style="fill:url(#SVGID_00000121968401578941192160000002640962455108331419_);" d="M201.433,100.021h-7.714
				c-3.48,0-6.123,0.818-7.938,2.457c-1.816,1.637-2.723,4.022-2.723,7.149v22.016c0,2.112-0.395,3.715-1.174,4.802
				c-0.781,1.084-2.031,1.701-3.741,1.849h-3.596c-0.604,0.055-0.909,0.38-0.909,0.988v6.751v6.752c0,0.61,0.306,0.936,0.909,0.989
				h3.596c1.71,0.148,2.96,0.766,3.741,1.848c0.779,1.086,1.174,2.688,1.174,4.803v22.017c0,3.124,0.907,5.51,2.723,7.146
				c1.814,1.639,4.458,2.458,7.938,2.458h7.714c0.249,0,0.465-0.088,0.644-0.265c0.176-0.176,0.266-0.391,0.266-0.643v-9
				c0-0.249-0.09-0.465-0.266-0.643c-0.179-0.177-0.395-0.265-0.644-0.265h-1.815c-1.158,0-2.119-0.413-2.873-1.245
				c-0.757-0.833-1.137-1.903-1.137-3.219V155.88c0-2.522-0.374-4.563-1.133-6.125c-0.756-1.564-1.939-2.723-3.555-3.481
				c-0.16-0.078-0.229-0.159-0.219-0.24c-0.011-0.08,0.059-0.159,0.219-0.24c1.615-0.759,2.799-1.916,3.555-3.479
				c0.759-1.563,1.133-3.604,1.133-6.128V115.3c0-1.315,0.38-2.386,1.137-3.217c0.754-0.833,1.715-1.248,2.873-1.248h1.815
				c0.249,0,0.465-0.087,0.644-0.265c0.176-0.178,0.266-0.391,0.266-0.642v-8.999c0-0.251-0.09-0.469-0.266-0.642
				C201.897,100.108,201.682,100.021,201.433,100.021z"/>
			
				<linearGradient id="SVGID_00000171680667522473317890000012249847401677439919_" gradientUnits="userSpaceOnUse" x1="312.0097" y1="113.7791" x2="312.0097" y2="204.8873">
				<stop  offset="0" style="stop-color:#57E4FF"/>
				<stop  offset="1" style="stop-color:#0071ED"/>
			</linearGradient>
			<path style="fill:url(#SVGID_00000171680667522473317890000012249847401677439919_);" d="M325.453,138.294h-3.596
				c-1.711-0.147-2.961-0.765-3.742-1.849c-0.779-1.087-1.174-2.689-1.174-4.802v-22.016c0-3.127-0.906-5.513-2.723-7.149
				c-1.813-1.639-4.457-2.457-7.937-2.457h-7.714c-0.25,0-0.465,0.087-0.645,0.267c-0.176,0.173-0.266,0.391-0.266,0.642v8.999
				c0,0.251,0.09,0.464,0.266,0.642c0.18,0.178,0.395,0.265,0.645,0.265h1.815c1.158,0,2.118,0.415,2.873,1.248
				c0.757,0.831,1.136,1.901,1.136,3.217v20.887c0,2.524,0.375,4.566,1.133,6.128c0.757,1.563,1.939,2.72,3.556,3.479
				c0.159,0.081,0.229,0.16,0.218,0.24c0.012,0.081-0.059,0.162-0.218,0.24c-1.616,0.759-2.799,1.917-3.556,3.481
				c-0.758,1.562-1.133,3.603-1.133,6.125v20.888c0,1.315-0.379,2.386-1.136,3.219c-0.755,0.832-1.715,1.245-2.873,1.245h-1.815
				c-0.25,0-0.465,0.088-0.645,0.265c-0.176,0.178-0.266,0.394-0.266,0.643v9c0,0.252,0.09,0.467,0.266,0.643
				c0.18,0.177,0.395,0.265,0.645,0.265h7.714c3.479,0,6.123-0.819,7.937-2.458c1.816-1.637,2.723-4.023,2.723-7.146v-22.017
				c0-2.114,0.395-3.717,1.174-4.803c0.781-1.082,2.031-1.699,3.742-1.848h3.596c0.603-0.054,0.908-0.379,0.908-0.989v-6.752v-6.751
				C326.361,138.674,326.057,138.349,325.453,138.294z"/>
		</g>
		<g>
			<path style="fill:#242C36;" d="M208.391,150.064v-4.03l22.166-11.082h0.402v6.851l-13.098,6.246l13.098,6.046v7.052h-0.402
				L208.391,150.064z"/>
			<path style="fill:#242C36;" d="M254.131,127.898h9.066l-17.326,36.27h-9.068L254.131,127.898z"/>
			<path style="fill:#242C36;" d="M269.443,161.145h-0.402v-7.052l13.098-6.046l-13.098-6.246v-6.851h0.402l22.166,11.082v4.03
				L269.443,161.145z"/>
		</g>
		
			<text transform="matrix(1 0 0 1 163.6699 271.5001)" style="fill:#242C36; font-family:'JetBrainsMono-ExtraBold'; font-size:36.5117px;">CODE_BOX</text>
	</g>
	<g>
		<g>
			
				<linearGradient id="SVGID_00000108276520213064359620000010891624143203865735_" gradientUnits="userSpaceOnUse" x1="123.3658" y1="382.3772" x2="207.075" y2="388.9283">
				<stop  offset="0" style="stop-color:#FF7DB2"/>
				<stop  offset="1" style="stop-color:#ED006B"/>
			</linearGradient>
			<path style="fill:url(#SVGID_00000108276520213064359620000010891624143203865735_);" d="M160.781,381.924
				c-0.777-0.861-1.91-1.293-3.396-1.293h-10.459c-1.004,0-1.764-0.188-2.279-0.559c-0.516-0.371-0.809-0.965-0.879-1.777v-1.707
				c-0.025-0.287-0.182-0.432-0.469-0.432h-3.209h-3.207c-0.289,0-0.443,0.145-0.471,0.432v1.707
				c-0.068,0.813-0.363,1.406-0.877,1.777c-0.516,0.371-1.277,0.559-2.281,0.559h-10.459c-1.484,0-2.617,0.432-3.395,1.293
				c-0.779,0.861-1.168,2.117-1.168,3.77v3.666c0,0.117,0.043,0.221,0.127,0.305c0.082,0.084,0.186,0.127,0.305,0.127h4.275
				c0.117,0,0.221-0.043,0.305-0.127c0.084-0.084,0.125-0.188,0.125-0.305v-0.863c0-0.551,0.197-1.006,0.592-1.365
				c0.396-0.359,0.904-0.539,1.529-0.539h9.924c1.197,0,2.166-0.178,2.908-0.537c0.744-0.361,1.295-0.922,1.654-1.689
				c0.037-0.076,0.076-0.109,0.113-0.104c0.039-0.006,0.076,0.027,0.115,0.104c0.359,0.768,0.91,1.328,1.652,1.689
				c0.742,0.359,1.713,0.537,2.91,0.537h9.924c0.623,0,1.133,0.18,1.527,0.539c0.395,0.359,0.594,0.814,0.594,1.365v0.863
				c0,0.117,0.041,0.221,0.125,0.305c0.084,0.084,0.186,0.127,0.305,0.127h4.275c0.119,0,0.223-0.043,0.305-0.127
				c0.084-0.084,0.127-0.188,0.127-0.305v-3.666C161.949,384.041,161.559,382.785,160.781,381.924z"/>
			
				<linearGradient id="SVGID_00000110465392507891034950000005217005701522268546_" gradientUnits="userSpaceOnUse" x1="118.9187" y1="439.2" x2="202.6274" y2="445.751">
				<stop  offset="0" style="stop-color:#FF7DB2"/>
				<stop  offset="1" style="stop-color:#ED006B"/>
			</linearGradient>
			<path style="fill:url(#SVGID_00000110465392507891034950000005217005701522268546_);" d="M161.518,434.752h-4.275
				c-0.119,0-0.221,0.041-0.305,0.125c-0.084,0.086-0.125,0.188-0.125,0.307v0.861c0,0.551-0.197,1.008-0.594,1.365
				c-0.395,0.359-0.904,0.539-1.527,0.539h-9.924c-1.197,0-2.168,0.178-2.908,0.539c-0.744,0.359-1.295,0.92-1.654,1.689
				c-0.037,0.076-0.076,0.107-0.115,0.104c-0.037,0.004-0.074-0.027-0.113-0.104c-0.359-0.77-0.91-1.33-1.652-1.689
				c-0.742-0.361-1.713-0.539-2.91-0.539h-9.924c-0.625,0-1.133-0.18-1.527-0.539c-0.396-0.357-0.594-0.814-0.594-1.365v-0.861
				c0-0.119-0.041-0.221-0.125-0.307c-0.084-0.084-0.186-0.125-0.305-0.125h-4.275c-0.119,0-0.223,0.041-0.305,0.125
				c-0.084,0.086-0.127,0.188-0.127,0.307v3.664c0,1.652,0.389,2.908,1.168,3.77c0.777,0.863,1.91,1.293,3.395,1.293h10.461
				c1.002,0,1.764,0.189,2.279,0.559c0.516,0.371,0.809,0.965,0.879,1.777v1.707c0.025,0.287,0.18,0.434,0.469,0.434h3.207h3.209
				c0.289,0,0.443-0.146,0.469-0.434v-1.707c0.07-0.813,0.363-1.406,0.879-1.777c0.516-0.369,1.275-0.559,2.281-0.559h10.459
				c1.484,0,2.617-0.43,3.395-1.293c0.777-0.861,1.168-2.117,1.168-3.77v-3.664c0-0.119-0.043-0.221-0.127-0.307
				C161.74,434.793,161.637,434.752,161.518,434.752z"/>
			
				<linearGradient id="SVGID_00000116212073568446488800000001890924575410143676_" gradientUnits="userSpaceOnUse" x1="110.6338" y1="396.9495" x2="110.6338" y2="440.229">
				<stop  offset="0" style="stop-color:#57E4FF"/>
				<stop  offset="1" style="stop-color:#0071ED"/>
			</linearGradient>
			<path style="fill:url(#SVGID_00000116212073568446488800000001890924575410143676_);" d="M117.02,390.414h-3.666
				c-1.652,0-2.908,0.389-3.77,1.166c-0.863,0.777-1.293,1.912-1.293,3.396v10.459c0,1.004-0.188,1.764-0.559,2.281
				c-0.371,0.514-0.965,0.807-1.777,0.877h-1.707c-0.287,0.027-0.432,0.182-0.432,0.471v3.207v3.207
				c0,0.289,0.145,0.443,0.432,0.471h1.707c0.813,0.07,1.406,0.363,1.777,0.877c0.371,0.516,0.559,1.277,0.559,2.281v10.459
				c0,1.484,0.43,2.617,1.293,3.395c0.861,0.779,2.117,1.168,3.77,1.168h3.666c0.117,0,0.221-0.041,0.305-0.125
				c0.084-0.084,0.127-0.186,0.127-0.307v-4.275c0-0.117-0.043-0.221-0.127-0.305c-0.084-0.084-0.188-0.125-0.305-0.125h-0.863
				c-0.551,0-1.006-0.197-1.365-0.592c-0.359-0.396-0.539-0.904-0.539-1.529v-9.922c0-1.199-0.178-2.168-0.539-2.91
				c-0.359-0.744-0.92-1.293-1.688-1.654c-0.076-0.037-0.109-0.076-0.105-0.113c-0.004-0.039,0.029-0.076,0.105-0.115
				c0.768-0.359,1.328-0.91,1.688-1.652c0.361-0.742,0.539-1.713,0.539-2.91v-9.922c0-0.625,0.18-1.135,0.539-1.529
				c0.359-0.395,0.814-0.592,1.365-0.592h0.863c0.117,0,0.221-0.041,0.305-0.127c0.084-0.084,0.127-0.185,0.127-0.305v-4.275
				c0-0.119-0.043-0.223-0.127-0.305C117.24,390.455,117.137,390.414,117.02,390.414z"/>
			
				<linearGradient id="SVGID_00000060007000452174101530000014911748143141038513_" gradientUnits="userSpaceOnUse" x1="169.5479" y1="396.9495" x2="169.5479" y2="440.229">
				<stop  offset="0" style="stop-color:#57E4FF"/>
				<stop  offset="1" style="stop-color:#0071ED"/>
			</linearGradient>
			<path style="fill:url(#SVGID_00000060007000452174101530000014911748143141038513_);" d="M175.934,408.594h-1.707
				c-0.813-0.07-1.406-0.363-1.779-0.877c-0.369-0.518-0.557-1.277-0.557-2.281v-10.459c0-1.484-0.43-2.619-1.293-3.396
				c-0.861-0.777-2.117-1.166-3.771-1.166h-3.664c-0.119,0-0.221,0.041-0.307,0.125c-0.082,0.082-0.125,0.186-0.125,0.305v4.275
				c0,0.119,0.043,0.221,0.125,0.305c0.086,0.086,0.188,0.127,0.307,0.127h0.863c0.551,0,1.006,0.197,1.365,0.592
				c0.359,0.395,0.539,0.904,0.539,1.529v9.922c0,1.197,0.178,2.168,0.537,2.91c0.359,0.742,0.922,1.293,1.689,1.652
				c0.076,0.039,0.109,0.076,0.104,0.115c0.006,0.037-0.027,0.076-0.104,0.113c-0.768,0.361-1.33,0.91-1.689,1.654
				c-0.359,0.742-0.537,1.711-0.537,2.91v9.922c0,0.625-0.18,1.133-0.539,1.529c-0.359,0.395-0.814,0.592-1.365,0.592h-0.863
				c-0.119,0-0.221,0.041-0.307,0.125c-0.082,0.084-0.125,0.188-0.125,0.305v4.275c0,0.121,0.043,0.223,0.125,0.307
				c0.086,0.084,0.188,0.125,0.307,0.125h3.664c1.654,0,2.91-0.389,3.771-1.168c0.863-0.777,1.293-1.91,1.293-3.395v-10.459
				c0-1.004,0.188-1.766,0.557-2.281c0.373-0.514,0.967-0.807,1.779-0.877h1.707c0.287-0.027,0.432-0.182,0.432-0.471v-3.207v-3.207
				C176.365,408.775,176.221,408.621,175.934,408.594z"/>
		</g>
		<g>
			<path style="fill:#FFFFFF;" d="M120.324,414.185v-1.914l10.529-5.266h0.191v3.254l-6.223,2.969l6.223,2.871v3.35h-0.191
				L120.324,414.185z"/>
			<path style="fill:#FFFFFF;" d="M142.053,403.656h4.307l-8.23,17.228h-4.309L142.053,403.656z"/>
			<path style="fill:#FFFFFF;" d="M149.326,419.449h-0.189v-3.35l6.221-2.871l-6.221-2.969v-3.254h0.189l10.531,5.266v1.914
				L149.326,419.449z"/>
		</g>
		
			<text transform="matrix(1 0 0 1 99.0806 471.8726)" style="fill:#FFFFFF; font-family:'JetBrainsMono-ExtraBold'; font-size:17.3447px;">CODE_BOX</text>
	</g>
	<g>
		<g>
			<path style="fill:#FFFFFF;" d="M380.6,381.924c-0.777-0.861-1.91-1.293-3.396-1.293h-10.459c-1.004,0-1.764-0.188-2.279-0.559
				c-0.516-0.371-0.809-0.965-0.879-1.777v-1.707c-0.025-0.287-0.182-0.432-0.469-0.432h-3.209h-3.207
				c-0.289,0-0.443,0.145-0.471,0.432v1.707c-0.068,0.813-0.363,1.406-0.877,1.777c-0.516,0.371-1.277,0.559-2.281,0.559h-10.459
				c-1.484,0-2.617,0.432-3.395,1.293c-0.779,0.861-1.168,2.117-1.168,3.77v3.666c0,0.117,0.043,0.221,0.127,0.305
				c0.082,0.084,0.186,0.127,0.305,0.127h4.275c0.117,0,0.221-0.043,0.305-0.127c0.084-0.084,0.125-0.188,0.125-0.305v-0.863
				c0-0.551,0.197-1.006,0.592-1.365c0.396-0.359,0.904-0.539,1.529-0.539h9.924c1.197,0,2.166-0.178,2.908-0.537
				c0.744-0.361,1.295-0.922,1.654-1.689c0.037-0.076,0.076-0.109,0.113-0.104c0.039-0.006,0.076,0.027,0.115,0.104
				c0.359,0.768,0.91,1.328,1.652,1.689c0.742,0.359,1.713,0.537,2.91,0.537h9.924c0.623,0,1.133,0.18,1.527,0.539
				c0.395,0.359,0.594,0.814,0.594,1.365v0.863c0,0.117,0.041,0.221,0.125,0.305c0.084,0.084,0.185,0.127,0.305,0.127h4.275
				c0.119,0,0.223-0.043,0.305-0.127c0.084-0.084,0.127-0.188,0.127-0.305v-3.666C381.768,384.041,381.377,382.785,380.6,381.924z"
				/>
			<path style="fill:#FFFFFF;" d="M381.336,434.752h-4.275c-0.119,0-0.221,0.041-0.305,0.125c-0.084,0.086-0.125,0.188-0.125,0.307
				v0.861c0,0.551-0.197,1.008-0.594,1.365c-0.395,0.359-0.904,0.539-1.527,0.539h-9.924c-1.197,0-2.168,0.178-2.908,0.539
				c-0.744,0.359-1.295,0.92-1.654,1.689c-0.037,0.076-0.076,0.107-0.115,0.104c-0.037,0.004-0.074-0.027-0.113-0.104
				c-0.359-0.77-0.91-1.33-1.652-1.689c-0.742-0.361-1.713-0.539-2.91-0.539h-9.924c-0.625,0-1.133-0.18-1.527-0.539
				c-0.396-0.357-0.594-0.814-0.594-1.365v-0.861c0-0.119-0.041-0.221-0.125-0.307c-0.084-0.084-0.185-0.125-0.305-0.125h-4.275
				c-0.119,0-0.223,0.041-0.305,0.125c-0.084,0.086-0.127,0.188-0.127,0.307v3.664c0,1.652,0.389,2.908,1.168,3.77
				c0.777,0.863,1.91,1.293,3.395,1.293h10.461c1.002,0,1.764,0.189,2.279,0.559c0.516,0.371,0.809,0.965,0.879,1.777v1.707
				c0.025,0.287,0.18,0.434,0.469,0.434h3.207h3.209c0.289,0,0.443-0.146,0.469-0.434v-1.707c0.07-0.813,0.363-1.406,0.879-1.777
				c0.516-0.369,1.275-0.559,2.281-0.559h10.459c1.484,0,2.617-0.43,3.395-1.293c0.777-0.861,1.168-2.117,1.168-3.77v-3.664
				c0-0.119-0.043-0.221-0.127-0.307C381.559,434.793,381.455,434.752,381.336,434.752z"/>
			<path style="fill:#FFFFFF;" d="M336.838,390.414h-3.666c-1.652,0-2.908,0.389-3.77,1.166c-0.863,0.777-1.293,1.912-1.293,3.396
				v10.459c0,1.004-0.188,1.764-0.559,2.281c-0.371,0.514-0.965,0.807-1.777,0.877h-1.707c-0.287,0.027-0.432,0.182-0.432,0.471
				v3.207v3.207c0,0.289,0.145,0.443,0.432,0.471h1.707c0.813,0.07,1.406,0.363,1.777,0.877c0.371,0.516,0.559,1.277,0.559,2.281
				v10.459c0,1.484,0.43,2.617,1.293,3.395c0.861,0.779,2.117,1.168,3.77,1.168h3.666c0.117,0,0.221-0.041,0.305-0.125
				c0.084-0.084,0.127-0.186,0.127-0.307v-4.275c0-0.117-0.043-0.221-0.127-0.305c-0.084-0.084-0.188-0.125-0.305-0.125h-0.863
				c-0.551,0-1.006-0.197-1.365-0.592c-0.359-0.396-0.539-0.904-0.539-1.529v-9.922c0-1.199-0.178-2.168-0.539-2.91
				c-0.359-0.744-0.92-1.293-1.688-1.654c-0.076-0.037-0.109-0.076-0.105-0.113c-0.004-0.039,0.029-0.076,0.105-0.115
				c0.768-0.359,1.328-0.91,1.688-1.652c0.361-0.742,0.539-1.713,0.539-2.91v-9.922c0-0.625,0.18-1.135,0.539-1.529
				c0.359-0.395,0.814-0.592,1.365-0.592h0.863c0.117,0,0.221-0.041,0.305-0.127c0.084-0.084,0.127-0.185,0.127-0.305v-4.275
				c0-0.119-0.043-0.223-0.127-0.305C337.059,390.455,336.955,390.414,336.838,390.414z"/>
			<path style="fill:#FFFFFF;" d="M395.752,408.594h-1.707c-0.813-0.07-1.406-0.363-1.779-0.877
				c-0.369-0.518-0.557-1.277-0.557-2.281v-10.459c0-1.484-0.43-2.619-1.293-3.396c-0.861-0.777-2.117-1.166-3.771-1.166h-3.664
				c-0.119,0-0.221,0.041-0.307,0.125c-0.082,0.082-0.125,0.186-0.125,0.305v4.275c0,0.119,0.043,0.221,0.125,0.305
				c0.086,0.086,0.188,0.127,0.307,0.127h0.863c0.551,0,1.006,0.197,1.365,0.592c0.359,0.395,0.539,0.904,0.539,1.529v9.922
				c0,1.197,0.178,2.168,0.537,2.91c0.359,0.742,0.922,1.293,1.689,1.652c0.076,0.039,0.109,0.076,0.104,0.115
				c0.006,0.037-0.027,0.076-0.104,0.113c-0.768,0.361-1.33,0.91-1.689,1.654c-0.359,0.742-0.537,1.711-0.537,2.91v9.922
				c0,0.625-0.18,1.133-0.539,1.529c-0.359,0.395-0.815,0.592-1.365,0.592h-0.863c-0.119,0-0.221,0.041-0.307,0.125
				c-0.082,0.084-0.125,0.188-0.125,0.305v4.275c0,0.121,0.043,0.223,0.125,0.307c0.086,0.084,0.188,0.125,0.307,0.125h3.664
				c1.654,0,2.91-0.389,3.771-1.168c0.863-0.777,1.293-1.91,1.293-3.395v-10.459c0-1.004,0.187-1.766,0.557-2.281
				c0.373-0.514,0.967-0.807,1.779-0.877h1.707c0.287-0.027,0.432-0.182,0.432-0.471v-3.207v-3.207
				C396.184,408.775,396.039,408.621,395.752,408.594z"/>
		</g>
		<g>
			<path style="fill:#FFFFFF;" d="M340.143,414.185v-1.914l10.529-5.266h0.191v3.254l-6.223,2.969l6.223,2.871v3.35h-0.191
				L340.143,414.185z"/>
			<path style="fill:#FFFFFF;" d="M361.871,403.656h4.307l-8.23,17.228h-4.309L361.871,403.656z"/>
			<path style="fill:#FFFFFF;" d="M369.145,419.449h-0.189v-3.35l6.221-2.871l-6.221-2.969v-3.254h0.189l10.531,5.266v1.914
				L369.145,419.449z"/>
		</g>
		
			<text transform="matrix(1 0 0 1 318.8989 471.8726)" style="fill:#FFFFFF; font-family:'JetBrainsMono-ExtraBold'; font-size:17.3447px;">CODE_BOX</text>
	</g>
</g>
</svg>
